<svg version="1.1" xmlns="http://www.w3.org/2000/svg" viewBox="0 0 454 274" width="454" height="274">
  <!-- svg-source:excalidraw -->
  
  <defs>
    <style class="style-fonts">
      
    </style>
    
  </defs>
  <rect x="0" y="0" width="454" height="274" fill="#ffffff"></rect><g stroke-linecap="round"><g transform="translate(254 94) rotate(0 69 82)"><path d="M-0.23 0.46 C22.72 27.41, 114.27 135.69, 137.48 162.83 M-1.81 -0.34 C20.95 27.22, 112.83 136.33, 136.27 163.76" stroke="#1e1e1e" stroke-width="2" fill="none"></path></g></g><mask></mask><g stroke-linecap="round"><g transform="translate(390 260) rotate(0 -70.5 -1)"><path d="M0.46 -0.52 C-23.42 -0.64, -118.47 -0.59, -142.17 -0.97 M-0.75 1.83 C-24.39 1.41, -117 -1.94, -140.07 -2.55" stroke="#1e1e1e" stroke-width="2" fill="none"></path></g></g><mask></mask><g stroke-linecap="round"><g transform="translate(252 93) rotate(0 -1 83)"><path d="M-0.52 -1.17 C-0.64 26.31, -0.59 137.61, -0.97 165.29 M1.41 0.83 C1.24 28.41, -1.09 138.98, -1.37 166.46" stroke="#1e1e1e" stroke-width="2" fill="none"></path></g></g><mask></mask><g transform="translate(253 79) rotate(0 67.5 78)" stroke="none"><path d="M-0.13 -1.46 C0.28 7.88, 1.54 42.23, 1.59 55.15 C1.65 68.07, 0.45 59.61, 0.2 76.06 C-0.04 92.52, -3.15 140.79, 0.12 153.88 C3.39 166.97, 4.91 155, 19.83 154.6 C34.74 154.2, 74.82 151.1, 89.63 151.47 C104.45 151.83, 101.64 156.2, 108.71 156.79 C115.79 157.38, 127.97 155.16, 132.08 154.99 C136.2 154.83, 133.69 156, 133.4 155.81 C133.11 155.62, 130.68 154.76, 130.37 153.86 C130.06 152.96, 132.05 150.85, 131.55 150.4 C131.04 149.94, 128.8 152.75, 127.34 151.14 C125.88 149.53, 127 145.56, 122.8 140.74 C118.59 135.92, 107.4 127.43, 102.11 122.24 C96.81 117.04, 93.17 112.1, 91.02 109.58 C88.87 107.06, 89.81 108.2, 89.21 107.12 C88.61 106.04, 90.95 106.4, 87.42 103.1 C83.9 99.8, 72.59 91.3, 68.05 87.29 C63.52 83.28, 61.87 80.98, 60.21 79.04 C58.55 77.09, 61.67 79.52, 58.08 75.61 C54.5 71.7, 41.94 60.41, 38.7 55.58 C35.45 50.74, 38.62 47.79, 38.61 46.6 C38.6 45.42, 39.37 48.37, 38.65 48.46 C37.93 48.54, 36.61 50.22, 34.28 47.12 C31.96 44.02, 28.56 35.09, 24.71 29.86 C20.86 24.64, 13.87 18.66, 11.19 15.77 C8.52 12.88, 9.51 13.41, 8.64 12.53 C7.77 11.66, 7.13 11.51, 6 10.53 C4.87 9.55, 2.89 8.12, 1.87 6.65 C0.85 5.18, 0.15 2.65, -0.1 1.7" stroke="none" stroke-width="0" fill="#1e1e1e" fill-rule="evenodd"></path><path fill="#1e1e1e" d="M 5.25,0 Q 5.25,0 5.18,3.16 5.10,6.32 5.16,8.53 5.22,10.73 5.37,13.18 5.53,15.62 5.66,17.99 5.80,20.35 5.90,22.71 6.01,25.06 6.10,27.54 6.19,30.01 6.29,33.12 6.40,36.23 6.45,38.92 6.49,41.62 6.53,44.27 6.57,46.93 6.78,50.43 6.99,53.93 7.20,57.66 7.41,61.39 7.44,64.95 7.47,68.51 7.90,71.01 8.34,73.51 8.44,76.92 8.54,80.34 8.58,82.99 8.63,85.63 8.62,88.98 8.62,92.33 8.65,94.69 8.69,97.06 8.73,99.25 8.77,101.43 8.76,104.57 8.75,107.72 8.71,111.32 8.67,114.92 8.70,117.28 8.73,119.65 8.76,123.22 8.80,126.78 8.80,129.66 8.80,132.53 8.76,136.04 8.73,139.55 8.71,142.93 8.69,146.31 8.75,149.00 8.82,151.68 7.03,150.30 5.24,148.92 8.31,148.25 11.37,147.58 13.47,147.23 15.57,146.88 19.11,146.58 22.66,146.28 25.41,146.22 28.17,146.15 32.12,146.22 36.07,146.28 38.83,146.27 41.59,146.25 43.97,146.22 46.35,146.19 49.71,146.16 53.08,146.12 56.65,146.16 60.23,146.21 62.47,146.18 64.71,146.16 68.43,146.21 72.16,146.26 74.72,146.24 77.27,146.22 81.21,146.22 85.15,146.23 87.88,146.64 90.62,147.06 94.48,147.42 98.34,147.79 102.42,148.29 106.50,148.78 109.14,148.89 111.79,149.00 114.71,148.96 117.64,148.92 120.17,148.89 122.71,148.86 126.14,148.88 129.58,148.89 130.22,148.88 130.87,148.87 131.68,148.56 132.48,148.25 133.33,148.14 134.19,148.03 135.04,148.13 135.90,148.23 136.71,148.53 137.51,148.83 138.22,149.31 138.94,149.80 139.51,150.44 140.09,151.08 140.49,151.84 140.90,152.60 141.11,153.44 141.32,154.27 141.32,155.13 141.33,155.99 141.13,156.83 140.93,157.67 140.53,158.43 140.14,159.20 139.57,159.85 139.00,160.50 138.30,160.99 137.59,161.48 133.67,161.10 129.76,160.73 126.89,157.45 124.02,154.18 121.80,151.60 119.58,149.02 118.06,147.02 116.55,145.01 113.99,142.01 111.43,139.01 109.49,136.98 107.55,134.94 105.91,133.18 104.28,131.42 101.88,128.65 99.47,125.89 97.51,124.18 95.54,122.47 93.75,120.39 91.95,118.30 90.26,116.60 88.57,114.89 86.29,113.01 84.01,111.13 81.93,109.20 79.86,107.27 77.93,105.73 76.01,104.19 73.58,101.91 71.15,99.62 69.08,97.73 67.02,95.85 65.14,94.06 63.26,92.26 61.10,89.94 58.93,87.61 56.77,85.20 54.61,82.78 52.37,81.19 50.14,79.60 47.63,76.30 45.13,73.00 43.65,70.87 42.17,68.74 40.61,66.24 39.04,63.75 37.61,61.80 36.18,59.86 35.11,57.94 34.05,56.01 32.74,54.01 31.43,52.01 29.45,48.77 27.47,45.53 25.91,42.63 24.36,39.73 22.63,37.32 20.91,34.92 19.70,33.10 18.49,31.28 16.95,29.73 15.41,28.18 13.73,26.09 12.05,24.00 10.38,21.73 8.70,19.46 5.06,16.98 1.43,14.51 -0.68,12.85 -2.79,11.20 -4.51,6.76 -6.24,2.32 -6.45,1.26 -6.66,0.21 -6.51,-0.85 -6.37,-1.92 -5.90,-2.89 -5.42,-3.86 -4.67,-4.62 -3.91,-5.39 -2.94,-5.87 -1.98,-6.36 -0.91,-6.51 0.15,-6.66 1.21,-6.46 2.27,-6.26 3.21,-5.73 4.15,-5.21 4.87,-4.41 5.59,-3.61 6.02,-2.62 6.46,-1.63 6.55,-0.56 6.64,0.51 6.38,1.55 6.13,2.60 5.55,3.51 4.97,4.42 4.14,5.10 3.30,5.78 2.29,6.16 1.28,6.53 0.20,6.57 -0.87,6.60 -1.90,6.29 -2.93,5.98 -3.81,5.35 -4.69,4.73 -5.32,3.85 -5.95,2.98 -6.27,1.95 -6.59,0.92 -6.57,-0.15 -6.54,-1.22 -6.18,-2.24 -5.81,-3.25 -5.14,-4.09 -4.47,-4.94 -3.56,-5.52 -2.65,-6.11 -1.61,-6.37 -0.56,-6.63 0.50,-6.55 1.58,-6.47 2.57,-6.05 3.56,-5.63 4.37,-4.91 5.17,-4.19 5.71,-3.26 6.24,-2.32 6.24,-2.32 6.24,-2.32 6.84,-0.50 7.45,1.31 9.56,3.09 11.68,4.86 13.71,6.20 15.73,7.53 17.47,9.41 19.21,11.28 20.85,13.09 22.48,14.91 24.81,17.68 27.13,20.45 28.70,22.26 30.27,24.07 32.07,27.00 33.87,29.93 35.99,33.26 38.10,36.59 39.26,39.13 40.42,41.66 42.03,43.97 43.64,46.27 44.80,48.11 45.95,49.94 47.39,52.15 48.83,54.36 50.20,56.69 51.56,59.02 53.15,61.32 54.75,63.62 56.14,66.00 57.53,68.37 59.91,70.77 62.29,73.17 64.93,75.92 67.57,78.67 69.81,80.60 72.05,82.53 73.77,83.98 75.49,85.44 77.83,87.14 80.17,88.84 82.26,90.46 84.34,92.09 86.45,94.11 88.56,96.13 91.20,98.41 93.84,100.68 95.38,102.18 96.91,103.68 98.58,105.31 100.25,106.94 102.63,109.36 105.00,111.78 106.83,113.28 108.65,114.79 110.89,117.43 113.14,120.06 114.89,121.87 116.65,123.68 118.09,125.41 119.53,127.15 121.85,129.53 124.16,131.91 125.81,133.66 127.45,135.42 128.95,137.45 130.45,139.49 132.13,141.99 133.80,144.49 136.12,146.95 138.43,149.42 134.65,149.14 130.87,148.87 131.67,148.56 132.48,148.25 133.33,148.14 134.19,148.03 135.04,148.13 135.90,148.23 136.71,148.53 137.51,148.83 138.22,149.31 138.94,149.80 139.51,150.44 140.09,151.08 140.49,151.84 140.90,152.60 141.11,153.44 141.32,154.27 141.32,155.13 141.33,155.99 141.13,156.83 140.93,157.67 140.53,158.43 140.14,159.20 139.57,159.85 139.00,160.50 138.30,160.99 137.59,161.48 137.04,161.60 136.49,161.73 133.03,162.41 129.58,163.10 126.80,163.12 124.02,163.15 121.79,163.12 119.56,163.08 116.83,163.05 114.09,163.01 111.79,162.93 109.49,162.84 105.70,162.34 101.91,161.84 98.71,161.59 95.52,161.34 93.37,161.05 91.22,160.76 88.15,160.26 85.09,159.76 81.18,159.77 77.27,159.77 74.72,159.75 72.16,159.73 68.43,159.78 64.71,159.83 62.47,159.81 60.23,159.78 56.65,159.83 53.08,159.87 49.71,159.84 46.35,159.80 43.97,159.77 41.59,159.74 38.84,159.73 36.09,159.72 32.21,159.80 28.33,159.88 25.88,159.90 23.43,159.93 20.84,160.14 18.24,160.34 16.15,160.82 14.06,161.30 10.66,161.73 7.25,162.16 3.09,161.19 -1.05,160.22 -2.93,155.95 -4.82,151.68 -4.75,149.00 -4.69,146.31 -4.71,142.93 -4.73,139.55 -4.76,136.04 -4.80,132.53 -4.80,129.66 -4.80,126.78 -4.78,124.47 -4.76,122.15 -4.72,119.99 -4.68,117.84 -4.72,114.29 -4.76,110.75 -4.76,107.69 -4.76,104.63 -4.74,101.98 -4.73,99.32 -4.70,96.88 -4.66,94.44 -4.66,91.58 -4.65,88.73 -4.64,85.63 -4.64,82.54 -4.65,79.86 -4.66,77.19 -4.74,75.04 -4.83,72.88 -5.16,70.75 -5.50,68.62 -5.53,65.21 -5.56,61.80 -5.70,58.71 -5.84,55.62 -6.20,51.27 -6.57,46.93 -6.53,44.27 -6.49,41.62 -6.45,38.92 -6.40,36.23 -6.29,33.12 -6.19,30.01 -6.10,27.54 -6.01,25.06 -5.90,22.71 -5.80,20.35 -5.66,17.99 -5.53,15.62 -5.37,13.18 -5.22,10.73 -5.16,8.53 -5.10,6.32 -5.18,3.16 -5.25,0 -5.18,-0.62 -5.10,-1.25 -4.88,-1.85 -4.65,-2.44 -4.29,-2.96 -3.93,-3.48 -3.46,-3.90 -2.98,-4.32 -2.42,-4.62 -1.86,-4.91 -1.24,-5.06 -0.63,-5.22 0.00,-5.22 0.63,-5.22 1.24,-5.06 1.86,-4.91 2.42,-4.62 2.98,-4.32 3.46,-3.90 3.93,-3.48 4.29,-2.96 4.65,-2.44 4.88,-1.85 5.10,-1.25 5.18,-0.62 5.25,0.00 5.25,0.00 L 5.25,0 Z"></path></g><g transform="translate(341 255) rotate(0 -28.5 -2.5)" stroke="none"><path fill="#1e1e1e" d="M -1.29,5.19 Q -1.29,5.19 -3.60,4.64 -5.91,4.09 -8.74,3.51 -11.58,2.94 -15.47,2.62 -19.37,2.31 -22.30,1.91 -25.22,1.51 -28.04,1.39 -30.86,1.28 -33.16,1.21 -35.45,1.13 -38.17,1.94 -40.90,2.75 -43.42,3.01 -45.95,3.28 -48.80,3.41 -51.65,3.53 -53.84,3.61 -56.03,3.69 -56.83,3.59 -57.63,3.50 -58.38,3.21 -59.14,2.93 -59.80,2.47 -60.47,2.01 -61.00,1.41 -61.54,0.80 -61.91,0.09 -62.29,-0.62 -62.48,-1.40 -62.68,-2.18 -62.68,-2.99 -62.68,-3.80 -62.49,-4.58 -62.29,-5.37 -61.92,-6.08 -61.54,-6.80 -61.01,-7.40 -60.47,-8.00 -59.81,-8.46 -59.15,-8.92 -58.39,-9.21 -57.64,-9.50 -56.84,-9.59 -56.03,-9.69 -52.78,-6.48 -49.53,-3.26 -51.66,-5.51 -53.78,-7.77 -50.44,-7.76 -47.10,-7.75 -44.81,-7.61 -42.51,-7.47 -40.35,-7.41 -38.18,-7.34 -35.76,-7.38 -33.33,-7.42 -31.09,-7.50 -28.86,-7.59 -26.39,-7.68 -23.92,-7.77 -21.74,-7.80 -19.55,-7.83 -16.93,-7.88 -14.30,-7.93 -12.65,-7.94 -10.99,-7.96 -9.88,-7.78 -8.77,-7.59 -7.78,-7.07 -6.78,-6.54 -6.01,-5.72 -5.23,-4.90 -4.76,-3.88 -4.29,-2.86 -4.16,-1.74 -4.04,-0.62 -4.28,0.47 -4.53,1.57 -5.11,2.54 -5.69,3.50 -6.55,4.23 -7.41,4.96 -8.45,5.38 -9.50,5.80 -10.62,5.86 -11.75,5.92 -12.83,5.62 -13.92,5.31 -14.85,4.68 -15.78,4.05 -16.47,3.15 -17.15,2.26 -17.51,1.19 -17.87,0.12 -17.87,-1.00 -17.87,-2.12 -17.51,-3.19 -17.15,-4.26 -16.46,-5.15 -15.78,-6.05 -14.85,-6.68 -13.92,-7.32 -12.83,-7.62 -11.75,-7.92 -10.62,-7.86 -9.50,-7.80 -8.45,-7.38 -7.40,-6.96 -6.55,-6.23 -5.69,-5.50 -5.11,-4.54 -4.53,-3.57 -4.28,-2.47 -4.04,-1.37 -4.16,-0.25 -4.29,0.86 -4.76,1.88 -5.23,2.90 -6.01,3.72 -6.78,4.54 -7.78,5.07 -8.77,5.59 -9.89,5.78 -11.00,5.96 -11.00,5.96 -11.00,5.96 -12.65,5.94 -14.30,5.93 -16.93,5.88 -19.55,5.83 -21.74,5.80 -23.92,5.77 -26.39,5.68 -28.86,5.59 -31.14,5.50 -33.41,5.40 -35.89,5.33 -38.36,5.25 -40.62,5.25 -42.89,5.25 -47.72,5.04 -52.54,4.83 -55.38,3.87 -58.22,2.92 -60.35,0.09 -62.49,-2.73 -59.26,0.48 -56.02,3.69 -56.83,3.59 -57.63,3.50 -58.38,3.21 -59.14,2.93 -59.80,2.47 -60.47,2.01 -61.00,1.41 -61.54,0.80 -61.91,0.09 -62.29,-0.62 -62.48,-1.40 -62.68,-2.18 -62.68,-2.99 -62.68,-3.80 -62.49,-4.58 -62.29,-5.37 -61.92,-6.08 -61.54,-6.80 -61.01,-7.40 -60.47,-8.00 -59.81,-8.46 -59.15,-8.92 -58.39,-9.21 -57.64,-9.50 -56.84,-9.59 -56.04,-9.69 -53.87,-9.62 -51.70,-9.54 -49.05,-9.47 -46.40,-9.41 -43.69,-9.55 -40.98,-9.70 -38.23,-10.38 -35.48,-11.06 -33.00,-11.08 -30.52,-11.09 -28.00,-11.04 -25.47,-10.98 -22.90,-10.43 -20.33,-9.87 -17.73,-9.36 -15.14,-8.84 -12.52,-8.56 -9.91,-8.27 -6.60,-7.33 -3.28,-6.39 -0.99,-5.79 1.29,-5.19 1.90,-4.96 2.50,-4.73 3.03,-4.36 3.56,-3.99 3.98,-3.50 4.41,-3.02 4.71,-2.45 5.01,-1.88 5.16,-1.25 5.31,-0.62 5.31,0.01 5.31,0.66 5.15,1.28 4.99,1.91 4.69,2.48 4.39,3.05 3.96,3.53 3.53,4.01 3.00,4.38 2.47,4.74 1.86,4.97 1.26,5.20 0.62,5.27 -0.01,5.35 -0.65,5.27 -1.29,5.19 -1.29,5.19 L -1.29,5.19 Z"></path></g><g transform="translate(253 93) rotate(0 44 62)" stroke="none"><path fill="#1e1e1e" d="M 4.07,-3.16 Q 4.07,-3.16 6.01,-0.52 7.95,2.11 9.74,4.80 11.52,7.49 13.78,9.94 16.03,12.40 17.32,14.72 18.61,17.05 20.93,19.95 23.24,22.85 25.79,25.72 28.35,28.59 30.19,30.82 32.03,33.05 34.19,36.44 36.36,39.84 38.23,42.37 40.11,44.90 41.63,46.93 43.15,48.96 45.42,52.08 47.69,55.20 48.84,57.22 49.99,59.24 51.82,61.39 53.65,63.55 54.76,65.54 55.86,67.53 57.12,70.13 58.38,72.73 59.54,74.71 60.69,76.68 62.51,79.13 64.34,81.57 66.29,84.40 68.23,87.22 70.09,89.36 71.95,91.49 73.81,93.38 75.66,95.28 77.29,97.25 78.92,99.23 81.17,102.35 83.42,105.47 85.67,108.72 87.91,111.98 89.77,114.90 91.63,117.81 92.14,120.77 92.65,123.73 92.54,121.34 92.43,118.94 92.82,119.64 93.22,120.35 93.44,121.12 93.66,121.90 93.68,122.70 93.71,123.51 93.54,124.30 93.37,125.09 93.02,125.81 92.67,126.54 92.15,127.16 91.64,127.78 90.99,128.26 90.34,128.73 89.60,129.04 88.85,129.35 88.06,129.48 87.26,129.60 86.46,129.53 85.65,129.46 84.89,129.19 84.13,128.93 83.45,128.49 82.77,128.06 82.22,127.47 81.67,126.89 80.58,125.37 79.49,123.86 79.02,122.88 78.54,121.90 78.41,120.82 78.27,119.74 78.49,118.68 78.70,117.61 79.25,116.67 79.80,115.73 80.61,115.01 81.43,114.29 82.44,113.87 83.44,113.45 84.52,113.37 85.61,113.30 86.66,113.57 87.72,113.84 88.63,114.44 89.54,115.03 90.21,115.89 90.89,116.75 91.25,117.77 91.61,118.80 91.63,119.88 91.65,120.97 91.32,122.01 90.99,123.05 90.35,123.92 89.70,124.80 88.81,125.43 87.92,126.05 86.88,126.36 85.83,126.67 84.75,126.63 83.66,126.59 82.64,126.20 81.62,125.82 80.78,125.13 79.94,124.43 79.36,123.51 78.79,122.59 78.54,121.53 78.28,120.47 78.38,119.39 78.48,118.30 78.92,117.31 79.37,116.31 80.10,115.51 80.84,114.71 81.79,114.18 82.74,113.66 83.81,113.46 84.88,113.27 85.96,113.43 87.04,113.59 88.01,114.08 88.98,114.57 89.74,115.35 90.50,116.13 90.50,116.13 90.50,116.13 91.46,117.53 92.43,118.94 92.82,119.64 93.22,120.34 93.44,121.12 93.66,121.90 93.68,122.70 93.71,123.51 93.54,124.30 93.37,125.09 93.02,125.81 92.67,126.54 92.15,127.16 91.64,127.78 90.99,128.25 90.34,128.73 89.60,129.04 88.85,129.35 88.06,129.48 87.26,129.60 86.46,129.53 85.65,129.46 84.89,129.19 84.13,128.93 83.45,128.50 82.77,128.06 82.22,127.47 81.67,126.89 80.34,124.67 79.01,122.46 76.97,119.53 74.93,116.59 72.68,113.68 70.42,110.78 68.24,107.58 66.07,104.39 64.16,102.38 62.26,100.37 60.80,98.78 59.33,97.20 57.44,94.42 55.55,91.63 53.82,89.26 52.08,86.89 49.84,83.57 47.60,80.25 46.22,77.31 44.83,74.36 43.51,71.95 42.18,69.53 39.73,65.99 37.28,62.45 35.40,59.79 33.52,57.13 31.59,54.37 29.65,51.60 27.82,48.93 25.99,46.26 23.94,43.05 21.89,39.84 20.37,37.75 18.86,35.66 17.17,33.43 15.49,31.21 14.00,28.88 12.51,26.56 10.32,22.94 8.13,19.33 5.76,16.16 3.39,13.00 1.74,10.61 0.09,8.23 -1.98,5.69 -4.07,3.16 -4.39,2.63 -4.71,2.10 -4.89,1.50 -5.07,0.91 -5.11,0.29 -5.14,-0.32 -5.03,-0.94 -4.91,-1.55 -4.66,-2.11 -4.40,-2.68 -4.01,-3.17 -3.63,-3.65 -3.14,-4.04 -2.65,-4.42 -2.08,-4.67 -1.51,-4.92 -0.90,-5.03 -0.29,-5.14 0.32,-5.10 0.94,-5.06 1.54,-4.88 2.13,-4.69 2.66,-4.37 3.19,-4.04 3.63,-3.60 4.07,-3.16 4.07,-3.16 L 4.07,-3.16 Z"></path></g><g transform="translate(262 97) rotate(0 0.00004999999998744897 0.00005000000000165983)" stroke="none"><path fill="#1e1e1e" d="M 3.14,-3.14 Q 3.14,-3.14 3.55,-2.55 3.97,-1.97 4.18,-1.28 4.40,-0.59 4.38,0.11 4.36,0.83 4.11,1.51 3.86,2.18 3.41,2.74 2.96,3.30 2.36,3.69 1.75,4.08 1.05,4.25 0.36,4.42 -0.35,4.36 -1.07,4.31 -1.73,4.02 -2.39,3.74 -2.92,3.26 -3.46,2.78 -3.81,2.15 -4.16,1.53 -4.30,0.82 -4.43,0.11 -4.34,-0.59 -4.24,-1.30 -3.92,-1.94 -3.60,-2.59 -3.09,-3.09 -2.59,-3.60 -1.94,-3.92 -1.30,-4.24 -0.59,-4.34 0.12,-4.43 0.82,-4.30 1.53,-4.16 2.15,-3.81 2.78,-3.46 3.26,-2.92 3.74,-2.39 4.02,-1.73 4.31,-1.07 4.36,-0.35 4.42,0.36 4.25,1.05 4.07,1.75 3.69,2.36 3.30,2.96 2.74,3.41 2.18,3.86 1.51,4.11 0.83,4.36 0.11,4.38 -0.60,4.40 -1.28,4.18 -1.97,3.97 -2.55,3.55 -3.14,3.13 -3.14,3.14 -3.14,3.14 -3.47,2.71 -3.80,2.29 -4.02,1.80 -4.24,1.32 -4.33,0.79 -4.43,0.26 -4.40,-0.26 -4.36,-0.80 -4.20,-1.31 -4.04,-1.82 -3.77,-2.28 -3.49,-2.73 -3.11,-3.11 -2.73,-3.49 -2.28,-3.77 -1.82,-4.05 -1.31,-4.20 -0.80,-4.36 -0.26,-4.40 0.26,-4.43 0.79,-4.33 1.32,-4.24 1.80,-4.02 2.29,-3.80 2.71,-3.47 3.14,-3.14 3.14,-3.14 L 3.14,-3.14 Z"></path></g><g transform="translate(260 97) rotate(0 62.5 73)" stroke="none"><path fill="#1e1e1e" d="M 4.50,-2.70 Q 4.50,-2.70 6.13,0.23 7.76,3.16 8.87,4.97 9.99,6.78 11.90,9.25 13.80,11.72 15.45,13.74 17.10,15.75 18.85,17.88 20.60,20.00 22.12,21.79 23.65,23.57 25.94,25.80 28.22,28.03 29.98,29.75 31.75,31.47 34.11,33.74 36.47,36.01 38.11,37.61 39.76,39.21 41.69,41.46 43.62,43.71 45.27,46.31 46.92,48.90 49.09,52.12 51.26,55.34 53.16,57.39 55.06,59.45 56.54,61.31 58.02,63.17 59.64,65.69 61.26,68.22 62.61,70.00 63.97,71.79 65.40,73.75 66.83,75.70 68.27,78.00 69.70,80.29 71.38,82.23 73.06,84.16 74.63,86.00 76.20,87.83 77.60,89.77 79.00,91.72 81.44,94.12 83.88,96.53 85.50,98.16 87.11,99.79 89.28,101.39 91.44,103.00 93.45,104.75 95.45,106.51 97.67,108.16 99.89,109.81 102.54,111.94 105.19,114.07 106.83,115.73 108.48,117.40 111.33,120.73 114.19,124.07 115.66,126.08 117.12,128.09 118.56,130.11 120.01,132.14 121.66,134.47 123.31,136.79 122.86,136.94 122.41,137.09 123.42,136.83 124.43,136.57 125.47,136.65 126.51,136.73 127.47,137.13 128.43,137.54 129.21,138.23 129.99,138.92 130.51,139.83 131.03,140.73 131.23,141.75 131.44,142.77 131.30,143.81 131.17,144.84 130.71,145.78 130.26,146.72 129.52,147.46 128.79,148.20 127.86,148.67 126.93,149.14 125.90,149.29 124.87,149.44 123.84,149.25 122.81,149.06 121.90,148.55 120.99,148.05 120.29,147.28 119.59,146.50 119.17,145.55 118.75,144.59 118.66,143.56 118.57,142.52 118.81,141.50 119.06,140.49 119.61,139.61 120.17,138.72 120.98,138.07 121.78,137.41 122.76,137.04 123.74,136.67 124.78,136.64 125.82,136.60 126.82,136.90 127.82,137.20 128.67,137.80 129.52,138.41 130.14,139.25 130.75,140.09 131.06,141.09 131.38,142.08 131.35,143.12 131.33,144.17 130.98,145.15 130.63,146.13 129.98,146.95 129.33,147.76 128.46,148.33 127.58,148.90 127.58,148.90 127.58,148.90 124.18,149.62 120.77,150.34 117.09,147.42 113.41,144.50 111.50,142.30 109.59,140.09 108.06,138.22 106.53,136.36 103.80,133.18 101.07,130.01 98.60,127.61 96.13,125.22 94.52,123.71 92.91,122.21 91.35,120.73 89.78,119.26 86.45,116.89 83.12,114.52 81.12,112.96 79.12,111.41 77.20,109.48 75.27,107.56 72.62,104.84 69.97,102.11 67.43,99.19 64.88,96.26 63.06,93.78 61.24,91.30 59.60,89.69 57.96,88.08 56.80,86.21 55.65,84.34 53.92,81.85 52.20,79.35 50.62,77.04 49.05,74.73 47.68,72.31 46.31,69.89 44.37,67.70 42.43,65.50 40.49,62.83 38.55,60.16 36.32,57.05 34.09,53.94 32.15,51.35 30.21,48.76 28.61,47.11 27.01,45.46 25.54,43.92 24.07,42.39 22.60,40.82 21.13,39.25 19.75,37.34 18.37,35.44 16.03,33.10 13.70,30.76 11.99,28.10 10.27,25.45 8.24,22.92 6.21,20.39 4.60,17.90 2.98,15.40 1.06,11.87 -0.86,8.33 -2.68,5.51 -4.50,2.70 -4.76,2.12 -5.01,1.54 -5.13,0.92 -5.24,0.29 -5.20,-0.33 -5.16,-0.96 -4.97,-1.56 -4.78,-2.17 -4.45,-2.71 -4.12,-3.25 -3.67,-3.69 -3.22,-4.14 -2.68,-4.46 -2.13,-4.79 -1.53,-4.98 -0.92,-5.16 -0.29,-5.20 0.33,-5.24 0.95,-5.12 1.57,-5.00 2.15,-4.74 2.73,-4.48 3.22,-4.09 3.72,-3.70 4.11,-3.20 4.50,-2.70 4.50,-2.70 L 4.50,-2.70 Z"></path></g><g stroke-linecap="round" transform="translate(10 78) rotate(0 112.5 93)"><path d="M32 0 C83.1 -1.66, 149.19 0.63, 193 0 C209.69 -1.09, 226.43 6.84, 225 32 C228.06 66.18, 227.57 110.7, 225 154 C227.65 176.26, 215.56 182.33, 193 186 C146.08 183.3, 102.2 188.96, 32 186 C7.75 189.14, 4.02 175.37, 0 154 C7.79 105.01, -0.59 66.7, 0 32 C-1.39 11.24, 12.32 2.82, 32 0" stroke="none" stroke-width="0" fill="#a5d8ff"></path><path d="M32 0 C91.7 3.76, 149.12 -0.96, 193 0 M32 0 C88.84 1.29, 148.55 2.06, 193 0 M193 0 C213.47 -3.78, 226.16 9.21, 225 32 M193 0 C209.88 0.44, 224.04 14.69, 225 32 M225 32 C229.23 60.98, 228.24 89.83, 225 154 M225 32 C226.61 64.2, 226.5 98.52, 225 154 M225 154 C227.41 178.36, 217.9 185.53, 193 186 M225 154 C222.38 176.64, 212.86 184.7, 193 186 M193 186 C143.34 184.91, 93.86 189.01, 32 186 M193 186 C133.61 183.93, 76.97 184.81, 32 186 M32 186 C10.78 185.34, -3.91 171.55, 0 154 M32 186 C14.52 183.18, 2.88 174.85, 0 154 M0 154 C-1.45 107.28, 1.74 65.22, 0 32 M0 154 C-1.24 108.57, 1.11 63, 0 32 M0 32 C-3.52 8.23, 10.37 -3.73, 32 0 M0 32 C3.16 11.25, 11.79 4.35, 32 0" stroke="#1971c2" stroke-width="2" fill="none"></path></g><g stroke-linecap="round" transform="translate(199 10) rotate(0 25.5 125)"><path d="M12.75 0 C23.35 -1.27, 24.37 0.54, 38.25 0 C46.3 -1.38, 49.81 6.08, 51 12.75 C46.79 93.59, 48.91 173.54, 51 237.25 C48.42 245.92, 48.79 250.17, 38.25 250 C29.51 250.46, 19.68 250.48, 12.75 250 C7.52 249.45, -3.54 249.26, 0 237.25 C2.68 185.93, 5.34 137.6, 0 12.75 C-3.04 7.13, 5.94 3.09, 12.75 0" stroke="none" stroke-width="0" fill="#1e1e1e"></path><path d="M12.75 0 C20.52 -1.59, 28.8 -1.41, 38.25 0 M12.75 0 C21.3 0.6, 28.59 0.5, 38.25 0 M38.25 0 C47.08 0.15, 50.27 4.52, 51 12.75 M38.25 0 C48.28 -0.35, 51.15 3.51, 51 12.75 M51 12.75 C50.9 92.78, 50.24 172.94, 51 237.25 M51 12.75 C52.46 95.85, 52.07 180.47, 51 237.25 M51 237.25 C50.46 244.35, 48.36 251.07, 38.25 250 M51 237.25 C53.21 248.03, 47.49 251.9, 38.25 250 M38.25 250 C29.32 250.15, 18.29 250.55, 12.75 250 M38.25 250 C28.98 249.47, 20.8 250.54, 12.75 250 M12.75 250 C2.64 250.69, 1.6 247.47, 0 237.25 M12.75 250 C2.97 251.68, 1.29 245.31, 0 237.25 M0 237.25 C-1.49 180.78, -0.87 124.19, 0 12.75 M0 237.25 C1.34 166.88, 0.92 96.34, 0 12.75 M0 12.75 C1.56 2.91, 5.55 -1.16, 12.75 0 M0 12.75 C-0.11 3.25, 2.97 -1.61, 12.75 0" stroke="#1e1e1e" stroke-width="2" fill="none"></path></g><g stroke-linecap="round" transform="translate(143 216) rotate(0 150.5 23.5)"><path d="M11.75 0 C66.12 3.13, 123.05 4.62, 289.25 0 C300.81 -4.93, 299.5 7.58, 301 11.75 C300.44 16.09, 304.67 28.79, 301 35.25 C300.79 40.46, 302.04 48.73, 289.25 47 C215.94 40.97, 137.14 42.53, 11.75 47 C0.61 42.46, -3.31 42.07, 0 35.25 C-4.4 23.94, 1.92 26.82, 0 11.75 C-5 0.8, 5.94 5.44, 11.75 0" stroke="none" stroke-width="0" fill="#1e1e1e"></path><path d="M11.75 0 C89.19 0.7, 165.87 4.91, 289.25 0 M11.75 0 C98.23 3.42, 183.93 1.96, 289.25 0 M289.25 0 C293.77 2.17, 299.5 1.21, 301 11.75 M289.25 0 C295.58 -0.85, 299.7 3.16, 301 11.75 M301 11.75 C298.2 16.25, 301.66 18.79, 301 35.25 M301 11.75 C302.08 16.66, 299.27 22.57, 301 35.25 M301 35.25 C297.45 43.43, 299.64 43.76, 289.25 47 M301 35.25 C303.95 45.51, 293.46 43.44, 289.25 47 M289.25 47 C222.45 43.44, 149.53 46.57, 11.75 47 M289.25 47 C205.77 46.73, 123.46 47.55, 11.75 47 M11.75 47 C3.62 48.73, -3.74 42.22, 0 35.25 M11.75 47 C4.51 48.51, 4.13 45.41, 0 35.25 M0 35.25 C-3.51 24.34, 0.83 19.3, 0 11.75 M0 35.25 C1.18 29.04, 0.71 18.98, 0 11.75 M0 11.75 C2.15 7.15, 4.02 -3.43, 11.75 0 M0 11.75 C-2.54 4.23, 5.16 -3.07, 11.75 0" stroke="#1e1e1e" stroke-width="2" fill="none"></path></g></svg>